<?xml version="1.0" encoding="UTF-8" standalone="no"?>
<!-- Created with Inkscape (http://www.inkscape.org/) -->

<svg
   width="512"
   height="512"
   viewBox="0 0 135.46666 135.46667"
   version="1.1"
   id="svg34583"
   xmlns="http://www.w3.org/2000/svg"
   xmlns:svg="http://www.w3.org/2000/svg">
  <defs
     id="defs34580" />
  <g
     id="layer1"
     transform="matrix(1.2063803,0,0,1.2063803,-13.74641,-14.701872)">
    <path
       id="path464-2-4-4-5-8"
       style="display:inline;fill:#ffc62d;fill-opacity:1;stroke-width:3.37946"
       d="M 67.588387,47.986825 A 36.407149,35.45408 0 0 0 31.181416,83.441043 36.407149,35.45408 0 0 0 67.588387,118.89526 36.407149,35.45408 0 0 0 76.817636,117.7121 L 66.118872,107.01332 A 23.628427,23.628427 0 0 1 43.959662,83.440525 23.628427,23.628427 0 0 1 67.588387,59.812837 23.628427,23.628427 0 0 1 91.216592,83.440525 23.628427,23.628427 0 0 1 89.070833,93.248156 l 9.213199,9.212684 A 36.407149,35.45408 0 0 0 103.99588,83.441043 36.407149,35.45408 0 0 0 67.588387,47.986825 Z" />
    <rect
       style="display:inline;fill:#b74ecf;fill-opacity:1;stroke-width:3.04382"
       id="rect1526-6-7-4-1-2"
       width="28.219543"
       height="28.219543"
       x="84.567955"
       y="6.830368"
       transform="matrix(0.8694451,0.49402957,-0.8694451,0.49402957,0,0)" />
    <rect
       style="fill:#b74ecf;fill-opacity:1;stroke-width:3.74258"
       id="rect1550-5-8-5-2-7"
       width="49.070686"
       height="13.941292"
       x="43.053276"
       y="45.1535" />
    <rect
       style="fill:#ebb016;fill-opacity:1;stroke:none;stroke-width:2.37887;stroke-opacity:1"
       id="rect3237-8-4-4-7-6"
       width="4.1594744"
       height="13.48475"
       x="102.87947"
       y="39.854836" />
    <rect
       style="fill:#7a258b;fill-opacity:1;stroke-width:5.39825"
       id="rect1526-8-2-6-1-2-1"
       width="50.047592"
       height="50.047592"
       x="52.450695"
       y="-25.286953"
       transform="matrix(0.8694451,0.49402958,-0.8694451,0.49402958,0,0)" />
    <path
       style="fill:#ebb016;fill-opacity:1;stroke:none;stroke-width:1.12469;stroke-opacity:1"
       id="rect8528-8-4-5-8-5"
       width="6.2710805"
       height="10.705298"
       x="101.82359"
       y="47.986889"
       d="m 103.34606,47.986889 3.22614,0 a 1.5224772,1.5224772 45 0 1 1.52247,1.522477 v 7.660378 a 1.5224433,1.5224433 135 0 1 -1.52244,1.522443 h -3.22613 a 1.5225048,1.5225048 45 0 1 -1.52251,-1.522504 V 49.50936 a 1.5224709,1.5224709 135 0 1 1.52247,-1.522471 z" />
    <circle
       style="fill:#ebb016;fill-opacity:1;stroke:none;stroke-width:3.17464;stroke-opacity:1"
       id="path10041-0-4-6-8-6"
       cx="105.00188"
       cy="48.001091"
       r="3.830112" />
    <rect
       style="fill:#b74ecf;fill-opacity:1;stroke:none;stroke-width:3.17464;stroke-opacity:1"
       id="rect23461-3-4-8"
       width="13.145529"
       height="35.950783"
       x="-22.507774"
       y="115.437"
       transform="rotate(-45)" />
    <path
       id="path464-2-4-4-5-8-4"
       style="fill:none;fill-opacity:1;stroke:#020200;stroke-width:2.14394;stroke-dasharray:none;stroke-opacity:1"
       d="M 67.588585,13.419691 24.074514,38.143925 43.052713,48.927196 v 8.333286 a 36.407146,35.454081 0 0 0 -11.872006,26.180178 36.407146,35.454081 0 0 0 36.407878,35.45429 36.407146,35.454081 0 0 0 9.228345,-1.1835 L 66.11882,107.01334 A 23.628426,23.628426 0 0 1 43.959491,83.44066 23.628426,23.628426 0 0 1 53.09098,64.798758 L 67.588585,73.036276 82.0851,64.798758 a 23.628426,23.628426 0 0 1 9.131507,18.641902 23.628426,23.628426 0 0 1 -2.14557,9.807313 l 9.212384,9.212377 A 36.407146,35.454081 0 0 0 103.99539,83.44066 36.407146,35.454081 0 0 0 92.123385,57.247713 v -8.319467 l 10.755585,-6.112154 v 1.997658 a 3.8301119,3.8301119 0 0 0 -1.7071,3.187513 3.8301119,3.8301119 0 0 0 0.76414,2.290334 3.1355338,3.1355338 0 0 0 -0.11286,0.830123 v 4.434851 a 3.1356036,3.1356036 0 0 0 3.13535,3.135367 3.1354769,3.1354769 0 0 0 3.13536,-3.135367 V 51.12172 a 3.1355467,3.1355467 0 0 0 -0.0894,-0.744984 3.8301119,3.8301119 0 0 0 0.82696,-2.375473 3.8301119,3.8301119 0 0 0 -1.79331,-3.243922 v -4.30393 l 4.06341,-2.309486 z m 7.41695,74.826182 -9.295402,9.295403 25.421333,25.421334 9.295404,-9.29541 z" />
  </g>
</svg>
